<?xml version="1.0" encoding="UTF-8"?>
<svg xmlns="http://www.w3.org/2000/svg" viewBox="0 0 760 360"
     font-family="ui-monospace, SFMono-Regular, Menlo, Consolas, monospace" font-size="13">
  <title>The four layers of the OpenMV protocol stack: transport at the bottom (USB / UART / TCP), framing above (packet header + CRCs), reliability (sequence numbers, ACK, NAK, retransmit), and channels at the top (named logical streams).</title>
  <style>
    svg { color: #111; }
    @media (prefers-color-scheme: dark) { svg { color: #eee; } }
  </style>

  <!-- Layer boxes (top to bottom) -->
  <g fill="none" stroke="currentColor" stroke-width="1.5">
    <rect x="180" y="30"  width="400" height="60" rx="6"/>
    <rect x="180" y="100" width="400" height="60" rx="6"/>
    <rect x="180" y="170" width="400" height="60" rx="6"/>
    <rect x="180" y="240" width="400" height="60" rx="6"/>
  </g>

  <!-- Layer labels (inside) -->
  <g fill="currentColor" font-size="14" text-anchor="middle">
    <text x="380" y="56">Channels</text>
    <text x="380" y="126">Reliability</text>
    <text x="380" y="196">Framing</text>
    <text x="380" y="266">Transport</text>
  </g>

  <!-- Layer one-line summaries -->
  <g fill="currentColor" font-size="11" text-anchor="middle" opacity="0.75">
    <text x="380" y="76">named logical streams (stdin / stdout / stream / user)</text>
    <text x="380" y="146">sequence numbers, ACK / NAK, retransmit with backoff</text>
    <text x="380" y="216">10-byte header + payload + 4-byte CRC, per-packet integrity</text>
    <text x="380" y="286">USB-CDC, UART serial, or TCP -- bytes in, bytes out</text>
  </g>

  <!-- Application above, transport below -->
  <g fill="currentColor" font-size="12" text-anchor="middle" opacity="0.65">
    <text x="380" y="20">application (cam Python / host Python)</text>
    <text x="380" y="328">wire (USB cable / serial line / Ethernet)</text>
  </g>

  <!-- Vertical arrows between layers (upward = "uses") -->
  <g fill="none" stroke="currentColor" stroke-width="1.2" opacity="0.55">
    <line x1="380" y1="240" x2="380" y2="230"/>
    <line x1="380" y1="170" x2="380" y2="160"/>
    <line x1="380" y1="100" x2="380" y2="90"/>
  </g>
  <g fill="currentColor" stroke="none" opacity="0.55">
    <polygon points="376,232 384,232 380,225"/>
    <polygon points="376,162 384,162 380,155"/>
    <polygon points="376,92 384,92 380,85"/>
  </g>

  <!-- Footer annotation -->
  <g fill="currentColor" font-size="11" text-anchor="middle" opacity="0.7">
    <text x="380" y="348">each layer hides its own concern from the one above</text>
  </g>
</svg>
